<svg width="80" height="80" viewBox="0 0 80 80" fill="none" xmlns="http://www.w3.org/2000/svg">
<g clip-path="url(#clip0_1491_20092)">
<path d="M70.5035 0H9.49653C4.25174 0 0 4.25174 0 9.49653V70.5035C0 75.7483 4.25174 80 9.49653 80H70.5035C75.7483 80 80 75.7483 80 70.5035V9.49653C80 4.25174 75.7483 0 70.5035 0Z" fill="white"/>
<path d="M40.7467 15.0144H18.4331V64.9818H27.559V51.5218H41.696C53.9345 51.5218 61.5476 42.9594 61.5476 33.3683C61.5476 23.3801 53.5336 15.0144 40.7467 15.0144ZM49.9407 42.7362H27.559V21.4891H32.3092L36.0911 26.1561H49.9369L49.9407 42.7362ZM49.9407 25.3392C49.9861 25.3846 36.8097 25.3392 36.8097 25.3392L35.5503 23.7016H49.9218C49.9218 23.7016 49.8953 25.3051 49.9407 25.3392Z" fill="#009FE3"/>
</g>
<defs>
<clipPath id="clip0_1491_20092">
<rect width="80" height="80" fill="white"/>
</clipPath>
</defs>
</svg>
