<svg width="24" height="24" viewBox="0 0 24 24" fill="none" xmlns="http://www.w3.org/2000/svg">
<g clip-path="url(#clip0_1492_13890)">
<rect width="24" height="24" fill="white"/>
<path fill-rule="evenodd" clip-rule="evenodd" d="M21.5173 2.25H2.48278C1.34485 2.25 0.413818 3.09375 0.413818 4.125V22.125C0.413818 23.1562 1.34485 24 2.48278 24H21.5173C22.6552 24 23.5862 23.1562 23.5862 22.125V4.125C23.5862 3.09375 22.6552 2.25 21.5173 2.25ZM21.5173 2.625C22.4301 2.625 23.1724 3.29775 23.1724 4.125V22.125C23.1724 22.9522 22.4301 23.625 21.5173 23.625H2.48278C1.56996 23.625 0.827611 22.9522 0.827611 22.125V4.125C0.827611 3.29775 1.56996 2.625 2.48278 2.625H21.5173Z" fill="#009FE3"/>
<path fill-rule="evenodd" clip-rule="evenodd" d="M19.2815 0H4.71848C4.34276 0 3.97821 0.115875 3.68441 0.328875L0.931862 2.32463C0.343034 2.75137 0 3.39787 0 4.0815V22.125C0 23.1562 0.931035 24 2.06897 24H21.931C23.069 24 24 23.1562 24 22.125V4.0815C24 3.39787 23.6574 2.75137 23.0681 2.32463L20.3156 0.328875C20.0222 0.115875 19.6572 0 19.2815 0ZM19.2815 0.75C19.4686 0.75 19.6523 0.8085 19.7983 0.91425L22.5513 2.91C22.9461 3.1965 23.1724 3.62325 23.1724 4.0815V22.125C23.1724 22.7453 22.6154 23.25 21.931 23.25H2.06897C1.38455 23.25 0.827586 22.7453 0.827586 22.125V4.0815C0.827586 3.62325 1.05393 3.1965 1.44869 2.91L4.20166 0.91425C4.34772 0.8085 4.53145 0.75 4.71848 0.75H19.2815Z" fill="#009FE3"/>
<path fill-rule="evenodd" clip-rule="evenodd" d="M20.2759 4.5H3.72417C3.04141 4.5 2.48279 5.00625 2.48279 5.625V20.625C2.48279 21.2437 3.04141 21.75 3.72417 21.75H20.2759C20.9586 21.75 21.5173 21.2437 21.5173 20.625V5.625C21.5173 5.00625 20.9586 4.5 20.2759 4.5ZM20.2759 4.875C20.7323 4.875 21.1035 5.21137 21.1035 5.625V20.625C21.1035 21.0386 20.7323 21.375 20.2759 21.375H3.72417C3.26775 21.375 2.89658 21.0386 2.89658 20.625V5.625C2.89658 5.21137 3.26775 4.875 3.72417 4.875H20.2759Z" fill="#009FE3"/>
<path fill-rule="evenodd" clip-rule="evenodd" d="M11.1724 9.375C8.88698 9.375 7.03442 11.0539 7.03442 13.125C7.03442 15.1961 8.88698 16.875 11.1724 16.875C13.4577 16.875 15.3103 15.1961 15.3103 13.125C15.3103 11.0539 13.4577 9.375 11.1724 9.375ZM11.1724 9.75C13.226 9.75 14.8965 11.2639 14.8965 13.125C14.8965 14.9861 13.226 16.5 11.1724 16.5C9.1187 16.5 7.44822 14.9861 7.44822 13.125C7.44822 11.2639 9.1187 9.75 11.1724 9.75Z" fill="#009FE3"/>
<path fill-rule="evenodd" clip-rule="evenodd" d="M13.2413 13.125C13.2413 14.1604 12.3148 15 11.1724 15C10.0299 15 9.10339 14.1604 9.10339 13.125C9.10339 12.0896 10.0299 11.25 11.1724 11.25C12.3148 11.25 13.2413 12.0896 13.2413 13.125Z" fill="#009FE3"/>
<path fill-rule="evenodd" clip-rule="evenodd" d="M18.207 9.75C17.5213 9.75 16.9656 10.2536 16.9656 10.875C16.9656 11.4964 17.5213 12 18.207 12C18.8926 12 19.4483 11.4964 19.4483 10.875C19.4483 10.2536 18.8926 9.75 18.207 9.75ZM18.207 10.125C18.6634 10.125 19.0345 10.4614 19.0345 10.875C19.0345 11.2886 18.6634 11.625 18.207 11.625C17.7505 11.625 17.3794 11.2886 17.3794 10.875C17.3794 10.4614 17.7505 10.125 18.207 10.125Z" fill="#009FE3"/>
<path fill-rule="evenodd" clip-rule="evenodd" d="M18.2069 16.5C17.9793 16.5 17.7931 16.3313 17.7931 16.125V10.875C17.7931 10.6687 17.9793 10.5 18.2069 10.5C18.4345 10.5 18.6207 10.6687 18.6207 10.875V16.125C18.6207 16.3313 18.4345 16.5 18.2069 16.5Z" fill="#009FE3"/>
<path fill-rule="evenodd" clip-rule="evenodd" d="M1.24133 2.4375L4.13788 0.1875H19.4482L22.7586 2.4375H1.24133Z" fill="#009FE3"/>
<path fill-rule="evenodd" clip-rule="evenodd" d="M2.68966 11.625C2.34828 11.625 2.06897 11.3719 2.06897 11.0625V8.4375C2.06897 8.12813 2.34828 7.875 2.68966 7.875C3.03104 7.875 3.31035 8.12813 3.31035 8.4375V11.0625C3.31035 11.3719 3.03104 11.625 2.68966 11.625Z" fill="#009FE3"/>
<path fill-rule="evenodd" clip-rule="evenodd" d="M2.68966 18.75C2.34828 18.75 2.06897 18.4969 2.06897 18.1875V15.5625C2.06897 15.2531 2.34828 15 2.68966 15C3.03104 15 3.31035 15.2531 3.31035 15.5625V18.1875C3.31035 18.4969 3.03104 18.75 2.68966 18.75Z" fill="#009FE3"/>
</g>
<defs>
<clipPath id="clip0_1492_13890">
<rect width="24" height="24" fill="white"/>
</clipPath>
</defs>
</svg>
